# xmcd
#
# Track frame offsets:
#	150
#	12339
#	25497
#	37635
#	50682
#	66933
#	80740
#	93211
#	109309
#	125602
#	140574
#	154158
#
# Disc length: 2242 seconds
#
# Revision: 1
# Processed by: cddbd v1.5.2PL0 Copyright (c) Steve Scherf et al.
# Submitted via: audiograbber 1.83.01
#
DISCID=a108c00c
DTITLE=Nat 'King' Cole - ZPA 112
DYEAR=1900
DGENRE=Karaoke
TTITLE0=Around The World
TTITLE1=Let There Be Love
TTITLE2=L-O-V-E
TTITLE3=Love Letters
TTITLE4=Mona Lisa
TTITLE5=Smile
TTITLE6=Those Lazy Hazy Crazy Days Of Summer
TTITLE7=Too Young
TTITLE8=Unforgettable
TTITLE9=When I Fall In Love
TTITLE10=(I Love You) For Sentemental Reasons
TTITLE11=Ramblin' Rose
EXTD=
EXTT0=
EXTT1=
EXTT2=
EXTT3=
EXTT4=
EXTT5=
EXTT6=
EXTT7=
EXTT8=
EXTT9=
EXTT10=
EXTT11=
PLAYORDER=
